<?xml version="1.0" standalone="no"?>
<!DOCTYPE svg PUBLIC "-//W3C//DTD SVG 20010904//EN"
 "http://www.w3.org/TR/2001/REC-SVG-20010904/DTD/svg10.dtd">
<svg version="1.0" xmlns="http://www.w3.org/2000/svg"
 width="1248.000000pt" height="336.000000pt" viewBox="0 0 1248.000000 336.000000"
 preserveAspectRatio="xMidYMid meet">

<g transform="translate(0.000000,336.000000) scale(0.100000,-0.100000)"
fill="#000000" stroke="none">
<path d="M0 1680 l0 -1680 6240 0 6240 0 0 1680 0 1680 -6240 0 -6240 0 0
-1680z m7130 166 c0 -470 3 -861 6 -870 5 -14 62 -16 535 -16 l529 0 0 -110 0
-110 -650 0 -650 0 0 980 0 980 115 0 115 0 0 -854z m2660 739 l0 -115 -647 2
-648 3 -3 99 c-1 55 0 106 2 113 4 11 125 13 651 13 l645 0 0 -115z m525 83
c24 -29 121 -159 443 -593 51 -69 97 -125 102 -125 5 0 60 68 122 152 62 84
187 251 278 372 l165 221 87 3 c81 3 88 1 102 -20 37 -58 35 -61 -112 -258
-245 -327 -458 -614 -476 -642 -21 -32 -19 -37 58 -134 23 -28 84 -109 136
-180 52 -71 98 -133 102 -139 5 -5 22 -28 38 -50 16 -22 33 -44 38 -50 4 -5
59 -80 122 -165 63 -85 128 -172 145 -194 l32 -38 -21 -44 -20 -44 -95 1 -96
0 -183 247 c-383 517 -417 562 -427 562 -6 0 -46 -48 -90 -107 -43 -60 -156
-211 -250 -338 -94 -126 -193 -260 -220 -298 l-49 -67 -92 0 -92 0 -21 34
c-12 18 -21 39 -21 45 0 7 153 216 340 466 187 250 340 459 340 465 0 6 -60
91 -133 188 -73 97 -202 272 -287 387 -85 116 -157 212 -160 215 -3 3 -17 20
-29 39 l-24 33 21 44 22 44 89 0 c88 0 89 0 116 -32z m-7592 -15 c13 -21 39
-65 57 -98 18 -33 44 -77 57 -97 12 -21 23 -40 23 -42 0 -3 25 -46 55 -96 30
-50 55 -93 55 -96 0 -3 16 -30 35 -60 19 -30 35 -56 35 -59 0 -2 25 -45 55
-95 30 -50 55 -93 55 -95 0 -2 25 -45 55 -95 30 -50 55 -93 55 -95 0 -2 25
-45 55 -95 30 -50 55 -93 55 -96 0 -2 23 -41 50 -85 28 -44 50 -84 50 -88 0
-4 8 -16 19 -25 18 -16 20 -14 60 49 22 36 41 68 41 70 0 2 25 45 55 95 30 50
55 93 55 95 0 2 25 45 55 95 30 50 55 93 55 95 0 4 32 58 155 265 18 30 42 71
52 90 21 36 125 218 161 280 11 19 29 51 40 70 11 19 36 61 56 93 l37 57 89 0
90 0 0 -975 0 -976 -107 3 -108 3 -3 713 c-2 583 -5 712 -15 712 -8 0 -20 -12
-28 -27 -7 -16 -37 -68 -66 -116 -29 -48 -53 -90 -53 -93 0 -2 -18 -33 -40
-68 -22 -35 -40 -66 -40 -69 0 -3 -26 -50 -59 -104 -32 -54 -78 -132 -102
-173 -50 -84 -49 -83 -106 -182 -61 -105 -73 -125 -119 -203 -23 -38 -49 -85
-58 -103 -17 -33 -17 -33 -83 -30 l-66 3 -49 80 c-27 44 -53 89 -59 100 -5 11
-15 29 -21 40 -19 29 -52 84 -80 135 -44 79 -134 233 -176 303 -23 37 -42 69
-42 72 0 2 -25 45 -55 95 -30 50 -55 92 -55 94 0 3 -126 215 -142 239 -12 17
-13 17 -20 0 -3 -10 -7 -334 -7 -721 l-1 -703 -107 3 -108 3 -3 960 c-1 528 0
966 3 973 3 8 32 12 95 12 l90 0 23 -37z m3657 -68 l0 -105 -650 0 -650 0 0
98 c0 54 3 102 7 105 3 4 296 7 650 7 l643 0 0 -105z m-4430 -5 l0 -100 -527
-2 -528 -3 -3 -187 -2 -188 -110 0 -110 0 0 290 0 290 640 0 640 0 0 -100z
m4430 -845 l0 -105 -647 2 -648 3 -3 89 c-2 49 -1 95 2 103 4 11 123 13 651
13 l645 0 0 -105z m3410 -5 l0 -110 -647 2 -648 3 -3 108 -3 107 651 0 650 0
0 -110z m-7985 10 l0 -85 -455 -5 -455 -5 -3 -212 -2 -213 -110 0 -110 0 0
305 0 305 568 -2 567 -3 0 -85z m163 -882 l3 -98 -651 0 -650 0 0 93 c0 52 3
97 7 100 3 4 295 6 647 5 l641 -3 3 -97z m4412 -8 l0 -110 -644 0 c-578 0
-644 2 -650 16 -8 21 -8 189 1 197 3 4 296 7 650 7 l643 0 0 -110z m3410 0 l0
-110 -650 0 -650 0 0 110 0 110 650 0 650 0 0 -110z"/>
</g>
</svg>
