<?xml version="1.0" standalone="no"?>
<!DOCTYPE svg PUBLIC "-//W3C//DTD SVG 20010904//EN"
 "http://www.w3.org/TR/2001/REC-SVG-20010904/DTD/svg10.dtd">
<svg version="1.0" xmlns="http://www.w3.org/2000/svg"
 width="226.000000pt" height="326.000000pt" viewBox="0 0 226.000000 326.000000"
 preserveAspectRatio="xMidYMid meet">

<g transform="translate(0.000000,326.000000) scale(0.100000,-0.100000)"
fill="#000000" stroke="none">
<path d="M0 1630 l0 -1630 1130 0 1130 0 0 1630 0 1630 -1130 0 -1130 0 0
-1630z m1890 850 l0 -100 -527 -2 -528 -3 -3 -187 -2 -188 -110 0 -110 0 0
290 0 290 640 0 640 0 0 -100z m-145 -840 l0 -85 -455 -5 -455 -5 -3 -212 -2
-213 -110 0 -110 0 0 305 0 305 568 -2 567 -3 0 -85z m163 -882 l3 -98 -651 0
-650 0 0 93 c0 52 3 97 7 100 3 4 295 6 647 5 l641 -3 3 -97z"/>
</g>
</svg>
